<?xml version="1.0" standalone="no"?>
<svg viewBox="0 0 200 200" xmlns="http://www.w3.org/2000/svg">
  <path fill="#E8DAFF" d="M47.6,-65.9C61.7,-55.2,73.2,-41.4,78.9,-25.3C84.6,-9.2,84.5,9.1,78.6,25C72.7,40.8,60.9,54.2,46.8,65.6C32.7,77,16.4,86.3,-0.1,86.5C-16.6,86.7,-33.3,77.7,-45.8,65.8C-58.3,53.9,-66.7,39.2,-72.8,23.1C-78.9,6.9,-82.7,-10.6,-79.5,-27.5C-76.4,-44.5,-66.3,-61,-51.9,-71.6C-37.5,-82.2,-18.7,-86.9,-1,-85.5C16.7,-84.1,33.4,-76.6,47.6,-65.9Z" transform="translate(100 100)" />
</svg>
